<?xml version="1.0" standalone="no"?>
<!DOCTYPE svg PUBLIC "-//W3C//DTD SVG 20010904//EN"
 "http://www.w3.org/TR/2001/REC-SVG-20010904/DTD/svg10.dtd">
<svg version="1.0" xmlns="http://www.w3.org/2000/svg"
 width="300.000000pt" height="300.000000pt" viewBox="0 0 300.000000 300.000000"
 preserveAspectRatio="xMidYMid meet">
<metadata>
Created by potrace 1.15, written by Peter Selinger 2001-2017
</metadata>
<g transform="translate(0.000000,300.000000) scale(0.100000,-0.100000)"
fill="#000000" stroke="none">
<path d="M705 2861 c-285 -86 -508 -314 -602 -616 -26 -85 -27 -101 -27 -285
-1 -210 7 -256 70 -432 155 -429 614 -940 1188 -1323 78 -52 151 -95 161 -95
10 0 83 43 161 95 574 383 1033 894 1188 1323 63 176 71 222 70 432 0 184 -1
200 -27 285 -58 185 -166 347 -308 459 -91 72 -215 137 -305 160 -79 20 -241
21 -319 1 -133 -34 -284 -125 -401 -241 l-59 -59 -64 63 c-118 116 -262 202
-396 237 -82 21 -252 19 -330 -4z m1508 -196 c32 -8 74 -23 94 -33 l35 -19
-46 -21 c-25 -12 -46 -29 -46 -37 0 -8 -15 -18 -32 -23 -21 -6 -33 -15 -32
-25 1 -8 -4 -13 -11 -11 -6 3 -23 0 -37 -5 -22 -8 -27 -7 -31 10 -7 25 -22 24
-48 -2 -17 -17 -20 -29 -15 -59 l6 -39 -32 11 c-74 22 -71 22 -64 2 5 -17 1
-20 -31 -22 -20 -2 -51 -12 -69 -23 -27 -17 -33 -17 -38 -4 -7 19 -36 20 -36
1 0 -8 -10 -31 -22 -50 -24 -37 -57 -45 -66 -17 -3 9 0 11 7 7 13 -9 61 19 61
34 0 16 -63 69 -82 70 -35 0 -26 20 39 80 168 158 336 217 496 175z m-1048
-87 c111 -73 255 -232 255 -280 0 -14 -11 -42 -25 -62 -30 -44 -33 -98 -6
-123 22 -22 36 -93 18 -93 -7 0 -18 -9 -25 -20 -12 -20 -14 -19 -46 29 -18 27
-36 61 -40 75 -3 14 -12 26 -20 26 -22 0 -37 -26 -31 -53 5 -19 2 -27 -13 -31
-24 -8 -36 -65 -15 -73 24 -9 43 6 43 33 0 15 3 24 7 20 11 -10 9 -60 -2 -68
-6 -5 -6 -11 2 -19 8 -8 16 -8 32 1 12 6 27 9 34 7 7 -3 -3 -11 -20 -18 -38
-15 -41 -29 -13 -54 35 -31 26 -53 -22 -57 l-43 -3 3 -60 c2 -33 7 -61 10 -63
34 -14 36 -21 14 -52 -13 -17 -20 -35 -16 -41 3 -6 -3 -20 -14 -32 -40 -44
-51 -81 -50 -166 1 -80 2 -82 48 -149 45 -66 47 -67 94 -70 27 -2 61 1 77 7
21 7 36 6 60 -6 28 -14 31 -19 26 -48 -4 -25 1 -41 19 -66 13 -18 24 -39 24
-46 0 -7 5 -22 12 -33 10 -15 10 -32 0 -79 -11 -53 -10 -65 6 -108 11 -26 23
-66 27 -88 4 -22 15 -58 24 -80 10 -22 21 -48 24 -58 7 -18 49 -23 94 -11 29
8 83 89 83 125 0 15 5 31 10 34 6 3 10 22 10 41 0 22 9 48 25 68 29 38 33 88
11 141 -18 41 -6 97 28 135 40 46 47 58 60 107 7 26 16 58 20 71 6 19 4 22
-16 22 -13 0 -29 -5 -36 -12 -9 -9 -15 -9 -24 0 -8 8 -5 14 16 22 15 5 32 10
37 10 5 0 12 7 15 15 3 8 21 23 39 34 21 12 37 32 45 56 11 33 10 39 -11 62
l-24 25 25 -6 c14 -3 36 -7 50 -8 14 -2 39 -18 56 -35 17 -18 36 -33 41 -33 6
0 13 -19 16 -42 3 -24 16 -67 28 -96 17 -41 26 -52 40 -49 13 3 19 -2 21 -17
2 -11 10 -21 18 -21 21 0 24 39 5 55 -9 7 -15 29 -15 52 0 39 9 55 75 131 21
23 41 8 53 -37 6 -21 15 -32 30 -34 15 -2 24 -14 32 -40 14 -51 14 -48 -27
-106 -141 -196 -358 -423 -575 -603 -129 -108 -365 -283 -382 -283 -25 0 -331
231 -475 359 l-73 65 7 46 c4 25 9 56 10 70 3 28 15 62 25 70 4 3 10 18 14 33
6 24 1 33 -25 58 -17 16 -43 32 -58 36 -14 3 -38 14 -53 24 -14 11 -34 19 -43
19 -9 0 -13 5 -10 10 12 19 -6 49 -42 72 -21 12 -51 35 -69 50 -19 17 -48 31
-70 34 -20 2 -43 9 -50 15 -7 6 -18 8 -24 4 -5 -3 -10 -1 -10 6 0 7 -11 2 -24
-10 l-24 -23 -25 38 c-47 77 -79 135 -76 139 2 2 22 -3 44 -11 22 -7 48 -14
58 -14 9 0 17 -7 17 -15 0 -17 35 -20 46 -4 8 14 -14 29 -33 22 -7 -3 -13 0
-13 6 0 16 -90 53 -116 48 -18 -3 -25 5 -43 46 -11 28 -20 52 -18 53 8 9 47
-11 52 -26 3 -9 15 -26 27 -36 l21 -19 -7 58 c-7 53 -6 60 17 81 14 13 26 39
30 62 4 24 17 50 32 64 14 13 25 27 25 32 0 5 14 21 30 35 17 13 30 33 30 43
0 31 19 64 43 76 22 10 23 8 19 -20 -5 -32 -23 -56 -41 -56 -6 0 -11 -7 -11
-15 0 -8 4 -15 9 -15 23 0 41 14 41 31 0 17 5 18 41 13 l42 -7 -7 29 c-4 16
-12 31 -17 32 -5 2 -9 10 -9 18 0 8 -5 14 -10 14 -6 0 -8 11 -4 25 4 18 1 27
-10 31 -9 3 -16 12 -16 20 0 8 -4 14 -9 14 -5 0 -21 24 -35 54 -28 59 -55 79
-63 46 -7 -28 -21 -25 -29 7 -11 42 -42 63 -91 61 -46 -2 -55 -17 -27 -45 16
-17 15 -57 -4 -153 l-9 -45 -7 37 c-6 29 -19 46 -56 73 -48 35 -48 36 -38 72
28 102 89 204 172 291 56 59 132 116 144 108 9 -5 38 -61 51 -98 7 -19 15 -26
25 -22 10 4 20 -3 27 -19 9 -20 8 -32 -5 -58 -20 -40 -20 -63 -2 -78 8 -7 17
-30 21 -52 4 -24 14 -43 23 -46 10 -3 27 -15 39 -26 29 -26 53 -16 53 22 0 31
29 91 44 91 5 0 23 16 42 35 18 19 40 35 50 35 25 0 82 38 89 60 3 11 1 28 -4
39 -14 26 -14 31 4 31 8 0 16 8 17 18 0 9 2 22 3 27 2 6 3 22 4 38 0 15 5 27
9 27 5 0 31 -15 57 -32z m325 -814 c22 -49 50 -60 50 -18 0 14 -5 35 -11 46
-6 11 -7 18 -2 15 5 -3 20 -30 33 -61 27 -61 50 -73 50 -27 0 17 5 33 10 36 6
3 10 -4 10 -16 0 -36 28 -59 73 -59 36 0 39 -2 33 -22 -3 -13 -6 -27 -6 -33 0
-14 -80 -12 -108 4 -23 12 -62 7 -62 -8 0 -5 -16 -2 -35 7 -26 12 -35 22 -37
46 -3 28 -7 31 -38 32 -19 1 -49 -5 -67 -12 -42 -18 -62 -19 -45 -2 7 7 12 18
12 24 0 27 45 83 67 84 12 0 25 5 28 10 10 16 25 1 45 -46z"/>
<path d="M1980 2615 c-25 -13 -50 -24 -57 -24 -15 -1 -49 -60 -58 -100 -8 -36
11 -61 45 -61 18 0 20 4 15 33 -6 29 -2 38 33 74 22 23 54 44 72 48 25 5 31
11 28 28 -4 29 -24 30 -78 2z"/>
<path d="M474 2427 c-14 -21 -20 -43 -17 -59 4 -20 0 -29 -16 -37 -28 -15 -28
-51 0 -51 12 0 38 -13 59 -30 41 -32 84 -41 74 -15 -4 8 -1 15 5 15 17 0 13
40 -4 46 -8 4 -15 10 -15 15 0 6 9 5 20 -1 17 -9 22 -7 30 12 7 19 3 28 -26
54 -19 17 -34 36 -34 41 0 12 -33 43 -46 43 -5 0 -19 -15 -30 -33z"/>
</g>
</svg>
